<svg width="114" height="112" viewBox="0 0 114 112" fill="none" xmlns="http://www.w3.org/2000/svg">
<circle cx="57" cy="24.1389" r="21.25" stroke="#001D3D" stroke-width="4"/>
<path d="M59.6902 72.4319C58.5898 70.2021 55.4102 70.2021 54.3098 72.4319L49.8512 81.466L39.8814 82.9147C37.4207 83.2723 36.4382 86.2962 38.2187 88.0318L45.433 95.0639L43.7299 104.993C43.3096 107.444 45.8819 109.313 48.0827 108.156L57 103.468L65.9173 108.156C68.1181 109.313 70.6905 107.444 70.2701 104.993L68.5671 95.0639L75.7813 88.0318C77.5618 86.2962 76.5793 83.2723 74.1187 82.9147L64.1489 81.466L59.6902 72.4319ZM68.4782 94.5458C68.4783 94.5464 68.4784 94.5469 68.4785 94.5475L68.4782 94.5458Z" fill="white" stroke="#FFC300" stroke-width="4"/>
<path fill-rule="evenodd" clip-rule="evenodd" d="M17.872 58.814C21.6306 51.6213 27.9798 46.0654 35.617 43.298C36.5892 44.4372 37.6466 45.4995 38.7791 46.4746C30.3045 48.9193 23.3869 55.2011 20.1542 63.4383L17.872 58.814ZM12.321 86.9702L12.192 88.0152C11.7506 91.5933 14.5417 94.7499 18.1469 94.7499H35.4187L31.3151 90.7499H18.1469C16.9452 90.7499 16.0148 89.6977 16.1619 88.505L16.222 88.0181L13.5312 86.7761C13.2489 86.6458 12.922 86.6543 12.6468 86.799L12.321 86.9702ZM78.5814 94.7499H95.8531C99.4583 94.7499 102.249 91.5933 101.808 88.0152L101.704 87.1733L100.992 86.799C100.717 86.6543 100.39 86.6458 100.108 86.7761L97.7585 87.8604L97.8381 88.505C97.9852 89.6977 97.0548 90.7499 95.8531 90.7499H82.6849L78.5814 94.7499ZM79.0338 43.5418C86.2565 46.3359 92.2705 51.6435 95.9409 58.4613L93.6838 63.0347C90.4702 55.2016 83.9034 49.1932 75.8572 46.6663C76.993 45.7082 78.0551 44.6634 79.0338 43.5418Z" fill="#001D3D"/>
<path d="M15.3252 64.0421C14.4082 62.1839 11.7586 62.1839 10.8415 64.0421L8.7973 68.1841L4.22628 68.8483C2.17572 69.1463 1.35696 71.6662 2.84074 73.1125L6.14837 76.3367L5.36754 80.8892C5.01726 82.9315 7.16085 84.4889 8.99492 83.5247L13.0834 81.3752L17.1718 83.5247C19.0059 84.4889 21.1495 82.9315 20.7992 80.8892L20.0184 76.3367L23.326 73.1125C24.8098 71.6662 23.991 69.1463 21.9404 68.8483L17.3694 68.1841L15.3252 64.0421ZM9.05743 68.1463L9.0568 68.1464L9.05743 68.1463ZM19.8301 76.5202L19.8307 76.5196L19.8301 76.5202ZM17.1093 68.1463C17.1095 68.1463 17.1097 68.1464 17.11 68.1464L17.1093 68.1463Z" fill="white" stroke="#FFC300" stroke-width="3"/>
<path d="M98.3138 64.0421C99.2308 62.1839 101.88 62.1839 102.797 64.0421L104.842 68.1841L109.413 68.8483C111.463 69.1463 112.282 71.6662 110.798 73.1125L107.491 76.3367L108.271 80.8892C108.622 82.9315 106.478 84.4889 104.644 83.5247L100.556 81.3752L96.4672 83.5247C94.6331 84.4889 92.4895 82.9315 92.8398 80.8892L93.6206 76.3367L90.313 73.1125C88.8292 71.6662 89.648 69.1463 91.6985 68.8483L96.2696 68.1841L98.3138 64.0421ZM104.582 68.1463L104.582 68.1464L104.582 68.1463ZM93.8089 76.5202L93.8083 76.5196L93.8089 76.5202ZM96.5297 68.1463C96.5295 68.1463 96.5292 68.1464 96.529 68.1464L96.5297 68.1463Z" fill="white" stroke="#FFC300" stroke-width="3"/>
</svg>
