<svg width="85" height="91" viewBox="0 0 85 91" fill="none" xmlns="http://www.w3.org/2000/svg">
<path d="M32.781 36.3408H6.41836C-5.71235 36.3408 10.0585 88.9998 18.7492 88.9998H78.4069C79.6142 89.0101 80.7761 88.5338 81.6373 87.6756C82.4985 86.8173 82.9887 85.6473 83 84.4227V39.0619C83 37.3848 82.0804 35.843 80.6082 35.0406C70.7835 29.695 59.2579 25.316 53.5547 15.0838L47.456 4.13152C47.0909 3.48211 46.5624 2.94263 45.9246 2.56815C45.2867 2.19368 44.5623 1.99763 43.8253 2.00002C28.6739 2.00002 33.1669 24.3783 35.2252 33.2716C35.308 33.6419 35.307 34.0264 35.2224 34.3963C35.1377 34.7661 34.9715 35.1117 34.7363 35.407C34.501 35.7024 34.2029 35.9399 33.8643 36.1016C33.5256 36.2633 33.1552 36.3451 32.781 36.3408Z" fill="white" stroke="#FFC300" stroke-width="3" stroke-linecap="round" stroke-linejoin="round"/>
</svg>
