<svg width="85" height="90" viewBox="0 0 85 90" fill="none" xmlns="http://www.w3.org/2000/svg">
<path d="M52.219 35.9461H78.5816C90.7123 35.9461 74.9415 87.9998 66.2508 87.9998H6.59309C5.38584 88.01 4.22394 87.5392 3.3627 86.6908C2.50146 85.8424 2.01132 84.6859 2 83.4753V38.6359C2 36.9781 2.91957 35.454 4.39184 34.6608C14.2165 29.3766 25.7421 25.048 31.4453 14.9334L37.544 4.10702C37.9091 3.46508 38.4376 2.93179 39.0754 2.56162C39.7133 2.19145 40.4377 1.99766 41.1747 2.00002C56.3261 2.00002 51.8331 24.1211 49.7748 32.9122C49.692 33.2782 49.693 33.6583 49.7776 34.0239C49.8623 34.3895 50.0285 34.7311 50.2637 35.0231C50.499 35.315 50.7971 35.5497 51.1357 35.7096C51.4744 35.8695 51.8448 35.9503 52.219 35.9461Z" fill="white" stroke="#001D3D" stroke-width="3" stroke-linecap="round" stroke-linejoin="round"/>
</svg>
