<svg width="94" height="100" viewBox="0 0 94 100" fill="none" xmlns="http://www.w3.org/2000/svg">
<path d="M60.5404 38.7177L36.8693 3.26868C31.558 -5.93082 -1.47167 29.0856 2.33347 35.6763L40.5826 96.3752C41.1033 97.2953 41.9733 97.9679 43.0012 98.2452C44.0292 98.5226 45.1311 98.382 46.0648 97.8544L80.4648 77.9935C81.7367 77.2592 82.5033 75.8867 82.4672 74.4189C82.2195 64.6277 80.494 53.9698 85.7566 45.1646L91.3921 35.7441C91.7248 35.1829 91.9025 34.5459 91.9072 33.8983C91.9119 33.2506 91.7434 32.6154 91.4189 32.0575C84.785 20.5672 69.7813 33.7727 63.9381 39.2275C63.6936 39.4525 63.4016 39.6201 63.084 39.7178C62.7664 39.8155 62.4316 39.8408 62.1046 39.7917C61.7776 39.7426 61.467 39.6205 61.1961 39.4345C60.9252 39.2485 60.701 39.0034 60.5404 38.7177Z" fill="white" stroke="#001D3D" stroke-width="3" stroke-linecap="round" stroke-linejoin="round"/>
</svg>
