<svg width="94" height="100" viewBox="0 0 94 100" fill="none" xmlns="http://www.w3.org/2000/svg">
<path d="M33.4652 38.7177L57.1363 3.26868C62.4476 -5.93082 95.4773 29.0856 91.6721 35.6763L53.423 96.3752C52.9023 97.2953 52.0323 97.9679 51.0044 98.2452C49.9764 98.5226 48.8745 98.382 47.9408 97.8544L13.5408 77.9935C12.2689 77.2592 11.5023 75.8867 11.5384 74.4189C11.7861 64.6277 13.5116 53.9698 8.24906 45.1646L2.61348 35.7441C2.28085 35.1829 2.10311 34.5459 2.0984 33.8983C2.09369 33.2506 2.26218 32.6154 2.58667 32.0575C9.22063 20.5672 24.2243 33.7727 30.0675 39.2275C30.312 39.4525 30.6041 39.6201 30.9216 39.7178C31.2392 39.8155 31.574 39.8408 31.901 39.7917C32.228 39.7426 32.5386 39.6205 32.8095 39.4345C33.0804 39.2485 33.3046 39.0034 33.4652 38.7177Z" fill="white" stroke="#FFC300" stroke-width="3" stroke-linecap="round" stroke-linejoin="round"/>
</svg>
